<svg width="21" height="21" viewBox="0 0 21 21" fill="none" xmlns="http://www.w3.org/2000/svg">
<path fill-rule="evenodd" clip-rule="evenodd" d="M8.39184 1.01613L8.27532 1.60779L7.82959 3.77276C7.11695 4.04491 6.47069 4.43081 5.88675 4.88845L3.70818 4.16001L3.1229 3.97858L2.81942 4.5012L1.31961 7.00868L1.01613 7.53138L1.46051 7.91995L3.14593 9.35376C3.08496 9.7288 3.00639 10.0998 3.00639 10.4938C3.00639 10.8878 3.08496 11.2588 3.14593 11.6338L1.46051 13.0676L1.01613 13.4562L1.31961 13.9788L2.81942 16.4864L3.1229 17.0103L3.70818 16.8276L5.88675 16.0992C6.47069 16.5568 7.11695 16.9426 7.82959 17.2148L8.27532 19.3797L8.39184 19.9715H12.6067L12.7246 19.3797L13.169 17.2148C13.8816 16.9426 14.5279 16.5568 15.1118 16.0992L17.2904 16.8276L17.8757 17.0103L18.1805 16.4864L19.679 13.9788L19.9838 13.4562L19.5381 13.0676L17.8526 11.6338C17.915 11.2588 17.9922 10.8878 17.9922 10.4938C17.9922 10.0998 17.915 9.7288 17.8526 9.35376L19.5381 7.91995L19.9838 7.53138L19.679 7.00868L18.1805 4.5012L17.8757 3.97858L17.2904 4.16001L15.1118 4.88845C14.5279 4.43081 13.8816 4.04491 13.169 3.77276L12.7246 1.60779L12.6067 1.01613H8.39184Z" stroke="#8996B8" stroke-opacity="0.6" stroke-width="2" stroke-linecap="square" stroke-linejoin="round"/>
<path fill-rule="evenodd" clip-rule="evenodd" d="M13.2091 10.4938C13.2091 11.9885 11.9952 13.2017 10.4995 13.2017C9.00373 13.2017 7.7898 11.9885 7.7898 10.4938C7.7898 8.999 9.00373 7.78591 10.4995 7.78591C11.9952 7.78591 13.2091 8.999 13.2091 10.4938Z" stroke="#8996B8" stroke-opacity="0.6" stroke-width="2" stroke-linecap="square" stroke-linejoin="round"/>
</svg>
