<svg width="20" height="20" viewBox="0 0 20 20" fill="none" xmlns="http://www.w3.org/2000/svg">
<path d="M15 7.75833C15 7.97934 15.0878 8.1913 15.2441 8.34758C15.4004 8.50386 15.6123 8.59166 15.8333 8.59166C16.0543 8.59166 16.2663 8.50386 16.4226 8.34758C16.5789 8.1913 16.6667 7.97934 16.6667 7.75833V4.16666C16.6667 3.94565 16.5789 3.73369 16.4226 3.57741C16.2663 3.42113 16.0543 3.33333 15.8333 3.33333H12.25C12.029 3.33333 11.817 3.42113 11.6607 3.57741C11.5045 3.73369 11.4167 3.94565 11.4167 4.16666C11.4167 4.38768 11.5045 4.59964 11.6607 4.75592C11.817 4.9122 12.029 5 12.25 5H13.825L10 8.82499L5.13333 3.96666C4.97392 3.83014 4.76885 3.7588 4.55912 3.7669C4.34939 3.77501 4.15044 3.86195 4.00203 4.01036C3.85362 4.15877 3.76668 4.35772 3.75858 4.56745C3.75048 4.77718 3.82181 4.98225 3.95834 5.14166L8.81667 9.99999L3.575 15.2417C3.4969 15.3191 3.4349 15.4113 3.39259 15.5128C3.35029 15.6144 3.3285 15.7233 3.3285 15.8333C3.3285 15.9433 3.35029 16.0523 3.39259 16.1538C3.4349 16.2554 3.4969 16.3475 3.575 16.425C3.65247 16.5031 3.74464 16.5651 3.84619 16.6074C3.94774 16.6497 4.05666 16.6715 4.16667 16.6715C4.27668 16.6715 4.3856 16.6497 4.48715 16.6074C4.5887 16.5651 4.68087 16.5031 4.75833 16.425L15 6.18333V7.75833Z" fill="#8996B8" fill-opacity="0.6"/>
<path d="M15.8333 11.4C15.6123 11.4 15.4004 11.4878 15.2441 11.6441C15.0878 11.8003 15 12.0123 15 12.2333V13.825L12.6833 11.5C12.5264 11.3431 12.3136 11.2549 12.0917 11.2549C11.8697 11.2549 11.6569 11.3431 11.5 11.5C11.3431 11.6569 11.2549 11.8697 11.2549 12.0917C11.2549 12.3136 11.3431 12.5264 11.5 12.6833L13.8083 15H12.2417C12.0206 15 11.8087 15.0878 11.6524 15.2441C11.4961 15.4003 11.4083 15.6123 11.4083 15.8333C11.4083 16.0543 11.4961 16.2663 11.6524 16.4226C11.8087 16.5789 12.0206 16.6667 12.2417 16.6667H15.8333C15.9509 16.6674 16.0673 16.6432 16.1749 16.5957C16.2825 16.5482 16.3788 16.4785 16.4575 16.3911C16.5362 16.3037 16.5956 16.2007 16.6316 16.0888C16.6677 15.9768 16.6796 15.8585 16.6667 15.7417V12.2333C16.6667 12.0123 16.5789 11.8003 16.4226 11.6441C16.2663 11.4878 16.0543 11.4 15.8333 11.4Z" fill="#8996B8" fill-opacity="0.6"/>
</svg>
