<svg width="20" height="20" viewBox="0 0 20 20" fill="none" xmlns="http://www.w3.org/2000/svg">
<path d="M5.83334 5.83333H14.1667V7.325C14.1667 7.7 14.6167 7.88333 14.875 7.61667L17.2 5.29167C17.3667 5.125 17.3667 4.86667 17.2 4.7L14.875 2.375C14.8163 2.31741 14.7418 2.27851 14.661 2.26318C14.5801 2.24785 14.4966 2.2568 14.4208 2.28888C14.3451 2.32096 14.2805 2.37475 14.2353 2.44346C14.1901 2.51217 14.1662 2.59274 14.1667 2.675V4.16667H5C4.54167 4.16667 4.16667 4.54167 4.16667 5V8.33333C4.16667 8.79167 4.54167 9.16667 5 9.16667C5.45834 9.16667 5.83334 8.79167 5.83334 8.33333V5.83333ZM14.1667 14.1667H5.83334V12.675C5.83334 12.3 5.38334 12.1167 5.125 12.3833L2.8 14.7083C2.63334 14.875 2.63334 15.1333 2.8 15.3L5.125 17.625C5.18375 17.6826 5.25823 17.7215 5.33905 17.7368C5.41987 17.7521 5.50342 17.7432 5.57917 17.7111C5.65492 17.679 5.71948 17.6252 5.76471 17.5565C5.80994 17.4878 5.83382 17.4073 5.83334 17.325V15.8333H15C15.4583 15.8333 15.8333 15.4583 15.8333 15V11.6667C15.8333 11.2083 15.4583 10.8333 15 10.8333C14.5417 10.8333 14.1667 11.2083 14.1667 11.6667V14.1667Z" fill="#8996B8" fill-opacity="0.6"/>
</svg>
