<svg width="21" height="21" viewBox="0 0 21 21" fill="none" xmlns="http://www.w3.org/2000/svg">
<path d="M5.08065 15.9096H6.09679V14.8935H5.08065V15.9096ZM5.08065 19.9715H4.06452C4.06452 20.3563 4.28191 20.7081 4.62609 20.8803C4.97026 21.0524 5.38215 21.0154 5.69008 20.7846L5.08065 19.9715ZM10.5 15.9096V14.8935H10.1615L9.8906 15.0965L10.5 15.9096ZM6.4355 5.41581H5.41937V7.44807H6.4355V5.41581ZM14.5645 7.44807H15.5807V5.41581H14.5645V7.44807ZM6.4355 9.47769H5.41937V11.5099H6.4355V9.47769ZM11.8549 11.5099H12.871V9.47769H11.8549V11.5099ZM4.06452 15.9096V19.9715H6.09679V15.9096H4.06452ZM5.69008 20.7846L11.1094 16.7227L9.8906 15.0965L4.47123 19.1584L5.69008 20.7846ZM10.5 16.9258H18.6291V14.8935H10.5V16.9258ZM18.6291 16.9258C19.9388 16.9258 21 15.8663 21 14.5557H18.9678C18.9678 14.7426 18.8178 14.8935 18.6291 14.8935V16.9258ZM21 14.5557V2.37006H18.9678V14.5557H21ZM21 2.37006C21 1.05948 19.9388 0 18.6291 0V2.03226C18.8178 2.03226 18.9678 2.18317 18.9678 2.37006H21ZM18.6291 0H2.37097V2.03226H18.6291V0ZM2.37097 0C1.0612 0 0 1.05948 0 2.37006H2.03226C2.03226 2.18317 2.18229 2.03226 2.37097 2.03226V0ZM0 2.37006V14.5557H2.03226V2.37006H0ZM0 14.5557C0 15.8663 1.0612 16.9258 2.37097 16.9258V14.8935C2.18229 14.8935 2.03226 14.7426 2.03226 14.5557H0ZM2.37097 16.9258H5.08065V14.8935H2.37097V16.9258ZM6.4355 7.44807H14.5645V5.41581H6.4355V7.44807ZM6.4355 11.5099H11.8549V9.47769H6.4355V11.5099Z" fill="#8996B8" fill-opacity="0.6"/>
</svg>
