<svg width="24" height="24" viewBox="0 0 24 24" fill="none" xmlns="http://www.w3.org/2000/svg">
<path d="M24 5.59999L10.4 5.59999M10.4 5.59999C10.4 3.83268 8.96731 2.39999 7.2 2.39999C5.43269 2.39999 4 3.83268 4 5.59999M10.4 5.59999C10.4 7.3673 8.96731 8.79999 7.2 8.79999C5.43269 8.79999 4 7.3673 4 5.59999M4 5.59999L0 5.59999M24 18.4L20 18.4M20 18.4C20 16.6327 18.5673 15.2 16.8 15.2C15.0327 15.2 13.6 16.6327 13.6 18.4M20 18.4C20 20.1673 18.5673 21.6 16.8 21.6C15.0327 21.6 13.6 20.1673 13.6 18.4M13.6 18.4L2.03434e-07 18.4" stroke="#EAF0FF" stroke-width="2"/>
</svg>
