<svg width="21" height="21" viewBox="0 0 21 21" fill="none" xmlns="http://www.w3.org/2000/svg">
<path d="M6.43548 7.79032V6.77419C5.87429 6.77419 5.41935 7.22913 5.41935 7.79032H6.43548ZM6.43548 9.14516L7.15399 9.86367L7.45161 9.56605V9.14516H6.43548ZM4.12263 9.54198L3.40412 10.2605L3.40412 10.2605L4.12263 9.54198ZM9.14516 17.9516H10.1613V17.5307L9.86367 17.2331L9.14516 17.9516ZM7.79032 16.5968H6.77419V17.0177L7.07181 17.3153L7.79032 16.5968ZM7.79032 14.5645H8.80645V14.1436L8.50883 13.846L7.79032 14.5645ZM6.43548 13.2097H5.41935V13.6306L5.71697 13.9282L6.43548 13.2097ZM6.43548 11.8548V10.8387C5.87429 10.8387 5.41935 11.2936 5.41935 11.8548H6.43548ZM12.1935 1.01613V3.72581H14.2258V1.01613H12.1935ZM11.8548 4.06451H10.5V6.09677H11.8548V4.06451ZM7.79032 6.77419H6.43548V8.80645H7.79032V6.77419ZM5.41935 7.79032V9.14516H7.45161V7.79032H5.41935ZM5.71697 8.42665L5.32015 8.82347L6.75717 10.2605L7.15399 9.86367L5.71697 8.42665ZM4.84114 8.82347L2.41206 6.39439L0.975036 7.83141L3.40412 10.2605L4.84114 8.82347ZM8.12903 6.43548C8.12903 6.62255 7.97738 6.77419 7.79032 6.77419V8.80645C9.09977 8.80645 10.1613 7.74493 10.1613 6.43548H8.12903ZM10.5 4.06451C9.19055 4.06451 8.12903 5.12603 8.12903 6.43548H10.1613C10.1613 6.24842 10.3129 6.09677 10.5 6.09677V4.06451ZM5.32015 8.82347C5.18787 8.95574 4.97341 8.95574 4.84114 8.82347L3.40412 10.2605C4.33004 11.1864 5.83125 11.1864 6.75717 10.2605L5.32015 8.82347ZM12.1935 3.72581C12.1935 3.91287 12.0419 4.06451 11.8548 4.06451V6.09677C13.1643 6.09677 14.2258 5.03525 14.2258 3.72581H12.1935ZM10.1613 19.9839V17.9516H8.12903V19.9839H10.1613ZM9.86367 17.2331L8.50883 15.8783L7.07181 17.3153L8.42665 18.6701L9.86367 17.2331ZM8.80645 16.5968V14.5645H6.77419V16.5968H8.80645ZM8.50883 13.846L7.15399 12.4912L5.71697 13.9282L7.07181 15.283L8.50883 13.846ZM7.45161 13.2097V11.8548H5.41935V13.2097H7.45161ZM6.43548 12.871H11.8548V10.8387H6.43548V12.871ZM12.1935 13.2097V14.1129H14.2258V13.2097H12.1935ZM15.0161 16.9355H18.629V14.9032H15.0161V16.9355ZM13.5484 15.4677C13.5484 16.2784 14.2055 16.9355 15.0161 16.9355V14.9032C15.3279 14.9032 15.5806 15.156 15.5806 15.4677H13.5484ZM13.6613 15.5806C13.5989 15.5806 13.5484 15.5301 13.5484 15.4677H15.5806C15.5806 14.4077 14.7213 13.5484 13.6613 13.5484V15.5806ZM12.1935 14.1129C12.1935 14.9235 12.8507 15.5806 13.6613 15.5806V13.5484C13.9731 13.5484 14.2258 13.8011 14.2258 14.1129H12.1935ZM11.8548 12.871C12.0419 12.871 12.1935 13.0226 12.1935 13.2097H14.2258C14.2258 11.9002 13.1643 10.8387 11.8548 10.8387V12.871ZM10.5 18.9677C5.82339 18.9677 2.03226 15.1766 2.03226 10.5H0C0 16.299 4.70101 21 10.5 21V18.9677ZM18.9677 10.5C18.9677 15.1766 15.1766 18.9677 10.5 18.9677V21C16.299 21 21 16.299 21 10.5H18.9677ZM10.5 2.03226C15.1766 2.03226 18.9677 5.82339 18.9677 10.5H21C21 4.70101 16.299 0 10.5 0V2.03226ZM10.5 0C4.70101 0 0 4.70101 0 10.5H2.03226C2.03226 5.82339 5.82339 2.03226 10.5 2.03226V0Z" fill="#8996B8" fill-opacity="0.6"/>
</svg>
