<svg width="20" height="21" viewBox="0 0 20 21" fill="none" xmlns="http://www.w3.org/2000/svg">
<path d="M5.4343 8.62646L6.42424 8.76788L6.42424 8.76788L5.4343 8.62646ZM5.42089 8.72027L4.43094 8.57885L4.43094 8.57885L5.42089 8.72027ZM14.5657 8.62646L15.5556 8.48505L15.5556 8.48504L14.5657 8.62646ZM14.5791 8.72027L13.5891 8.86169L13.5891 8.86169L14.5791 8.72027ZM12.6667 16.6667V17.6667C13.219 17.6667 13.6667 17.219 13.6667 16.6667H12.6667ZM7.33333 16.6667H6.33333C6.33333 17.219 6.78105 17.6667 7.33333 17.6667V16.6667ZM6.34065 12.2039L7.13144 11.5918L6.34065 12.2039ZM13.6593 12.2039L12.8685 11.5918L13.6593 12.2039ZM8 20.3333H12V18.3333H8V20.3333ZM4.44435 8.48503L4.43094 8.57885L6.41084 8.86169L6.42424 8.76788L4.44435 8.48503ZM9.99998 3.66667C7.20715 3.66667 4.83931 5.72027 4.44435 8.48504L6.42424 8.76788C6.67845 6.98842 8.20245 5.66667 9.99998 5.66667V3.66667ZM15.5556 8.48504C15.1606 5.72028 12.7928 3.66667 9.99998 3.66667V5.66667C11.7975 5.66667 13.3215 6.98842 13.5757 8.76789L15.5556 8.48504ZM15.569 8.57885L15.5556 8.48505L13.5757 8.76788L13.5891 8.86169L15.569 8.57885ZM14.4501 12.8159C15.3423 11.6633 15.7946 10.1581 15.569 8.57885L13.5891 8.86169C13.7347 9.88107 13.445 10.847 12.8685 11.5918L14.4501 12.8159ZM11.6667 14.5351V16.6667H13.6667V14.5351H11.6667ZM12.6667 15.6667H7.33333V17.6667H12.6667V15.6667ZM8.33333 16.6667V14.5351H6.33333V16.6667H8.33333ZM4.43094 8.57885C4.20533 10.1582 4.65767 11.6633 5.54985 12.816L7.13144 11.5918C6.55498 10.847 6.26522 9.88107 6.41084 8.86169L4.43094 8.57885ZM8.33333 14.5351C8.33333 13.3201 7.689 12.3122 7.13144 11.5918L5.54985 12.816C6.05173 13.4644 6.33333 14.0192 6.33333 14.5351H8.33333ZM12.8685 11.5918C12.311 12.3121 11.6667 13.3201 11.6667 14.5351H13.6667C13.6667 14.0192 13.9483 13.4643 14.4501 12.8159L12.8685 11.5918ZM9 0V2.66667H11V0H9ZM0 11H2.66667V9H0V11ZM17.3333 11H20V9H17.3333V11ZM4.70711 4.62623L2.70711 2.62623L1.29289 4.04044L3.29289 6.04044L4.70711 4.62623ZM16.7071 6.04044L18.7071 4.04044L17.2929 2.62623L15.2929 4.62623L16.7071 6.04044Z" fill="#8996B8" fill-opacity="0.6"/>
</svg>
